<?xml version="1.0" encoding="UTF-8" standalone="no"?>
<svg
   xmlns:dc="http://purl.org/dc/elements/1.1/"
   xmlns:cc="http://creativecommons.org/ns#"
   xmlns:rdf="http://www.w3.org/1999/02/22-rdf-syntax-ns#"
   xmlns:svg="http://www.w3.org/2000/svg"
   xmlns="http://www.w3.org/2000/svg"
   xmlns:sodipodi="http://sodipodi.sourceforge.net/DTD/sodipodi-0.dtd"
   xmlns:inkscape="http://www.inkscape.org/namespaces/inkscape"
   sodipodi:docname="banneritemsvg1.svg"
   inkscape:version="1.0 (4035a4fb49, 2020-05-01)"
   id="svg1815"
   version="1.1"
   viewBox="0 0 210 297"
   height="297mm"
   width="210mm">
  <defs
     id="defs1809">
    <clipPath
       clipPathUnits="userSpaceOnUse"
       id="clipPath1265">
      <path
         d="M 422.369,171.376 H 470.2 V 36.9573 h -47.831 z"
         id="path1263" />
    </clipPath>
  </defs>
  <sodipodi:namedview
     inkscape:window-maximized="0"
     inkscape:window-y="0"
     inkscape:window-x="0"
     inkscape:window-height="728"
     inkscape:window-width="1366"
     showgrid="false"
     inkscape:document-rotation="0"
     inkscape:current-layer="g1259"
     inkscape:document-units="mm"
     inkscape:cy="391.13869"
     inkscape:cx="410.565"
     inkscape:zoom="1.4"
     inkscape:pageshadow="2"
     inkscape:pageopacity="0.0"
     borderopacity="1.0"
     bordercolor="#666666"
     pagecolor="#ffffff"
     id="base" />
  <metadata
     id="metadata1812">
    <rdf:RDF>
      <cc:Work
         rdf:about="">
        <dc:format>image/svg+xml</dc:format>
        <dc:type
           rdf:resource="http://purl.org/dc/dcmitype/StillImage" />
        <dc:title></dc:title>
      </cc:Work>
    </rdf:RDF>
  </metadata>
  <g
     id="layer1"
     inkscape:groupmode="layer"
     inkscape:label="Layer 1">
    <g
       style="filter:url(#filter1785)"
       id="g873"
       transform="matrix(0.35277777,0,0,-0.35277777,81.048883,93.694589)">
      <path
         d="M 0,0 4.29,3.249 V 0 Z M 52.069,39.443 99.707,3.285 H 52.02 4.337 Z M 104.035,0 H 99.85 v 3.177 z m 3.982,0 c 0,0.469 -0.22,0.91 -0.593,1.193 L 52.978,42.521 c -0.538,0.408 -1.277,0.407 -1.814,0 L -3.39,1.194 C -3.764,0.911 -3.983,0.47 -3.983,0 H -6.15 v -9.4 h 2.167 3 5.273 v -78.551 -10 -9 h 0.024 c 0.499,-9.106 12.086,-16.389 26.315,-16.389 4.242,0 8.246,0.652 11.796,1.801 l 9.595,-9.595 9.134,9.135 c 3.661,-1.244 7.829,-1.952 12.255,-1.952 14.547,0 26.339,7.61 26.339,17 h 0.102 v 9 10 73.157 5.394 h 5.167 3 2.167 V 0 Z"
         style="fill:#232f33;fill-opacity:1;fill-rule:nonzero;stroke:none"
         id="path875" />
    </g>
    <g
       style="filter:url(#filter1785)"
       id="g1291"
       transform="matrix(0.35277777,0,0,-0.35277777,80.172935,97.0107)">
      <path
         d="M 0,0 V 9.4 L 54.554,50.728 109,9.4 V 0"
         style="fill:none;stroke:#917857;stroke-width:3;stroke-linecap:butt;stroke-linejoin:round;stroke-miterlimit:10;stroke-dasharray:none;stroke-opacity:1"
         id="path1293" />
    </g>
    <g
       style="filter:url(#filter1785)"
       id="g1249"
       transform="matrix(0.35277777,0,0,-0.35277777,82.598283,92.535714)">
      <path
         d="m 0,0 v -110.236 h 0.024 c 0.499,-9.106 12.086,-16.389 26.315,-16.389 4.242,0 8.246,0.651 11.796,1.801 l 9.594,-9.595 9.135,9.135 c 3.661,-1.244 7.829,-1.952 12.255,-1.952 14.547,0 26.339,7.61 26.339,17 h 0.103 L 95.561,0 Z"
         style="fill:#e25f3f;fill-opacity:1;fill-rule:nonzero;stroke:none"
         id="path1251" />
    </g>
    <g
       transform="matrix(0.35277777,0,0,-0.35277777,-49.602399,152.99336)"
       style="filter:url(#filter1785)"
       id="g1259">
      <g
         id="g1261" />
      <path
         d="m 470.2001,153.90402 h -95.561 v 10.78699 h 95.561 z"
         style="fill:#f6d433;fill-opacity:1;fill-rule:nonzero;stroke:none;stroke-width:0.999998;filter:url(#filter1785)"
         id="path1257" />
      <g
         style="filter:url(#filter1785)"
         id="g1253"
         transform="translate(443.2671,63.735008)">
        <path
           d="m 0,0 c -4.426,0 -8.594,0.708 -12.255,1.952 l -9.135,-9.135 -9.594,9.595 C -34.534,1.263 -38.538,0.611 -42.78,0.611 -57.009,0.611 -68.596,7.895 -69.095,17 h -0.024 V 7 h 0.024 c 0.499,-9.105 12.086,-16.389 26.315,-16.389 4.242,0 8.246,0.652 11.796,1.801 l 9.594,-9.595 9.135,9.135 C -8.594,-9.292 -4.426,-10 0,-10 c 14.547,0 26.339,7.61 26.339,17 h 0.102 V 17 H 26.339 C 26.339,7.61 14.547,0 0,0"
           style="fill:#f6d433;fill-opacity:1;fill-rule:nonzero;stroke:none"
           id="path1255" />
      </g>
      <g
         id="g1273">
        <g
           clip-path="url(#clipPath1265)"
           opacity="0.139999"
           id="g1271">
          <g
             transform="translate(422.3691,171.376)"
             id="g1269">
            <path
               d="m 0,0 v -134.419 l 9.135,9.135 c 3.661,-1.244 7.829,-1.952 12.255,-1.952 14.547,0 26.339,7.61 26.339,17 h 0.102 L 47.831,0 Z"
               style="fill:#000000;fill-opacity:1;fill-rule:nonzero;stroke:none"
               id="path1267" />
          </g>
        </g>
      </g>
      <g
         style="filter:url(#filter1785)"
         id="g1275"
         transform="translate(426.00473,96.327467)">
        <path
           d="m 0,0 c 0,7.921 3.146,15.518 8.747,21.118 1.198,1.198 1.198,3.14 0,4.338 L -4.149,38.353 -17.046,25.456 c -1.198,-1.198 -1.198,-3.14 0,-4.338 5.601,-5.6 8.747,-13.197 8.747,-21.118 0,-3.181 -1.264,-6.232 -3.513,-8.481 l 7.663,-7.663 7.662,7.663 C 1.264,-6.232 0,-3.181 0,0"
           style="fill:#eda637;fill-opacity:1;fill-rule:nonzero;stroke:none"
           id="path1277" />
      </g>
      <g
         style="filter:url(#filter1785)"
         id="g1279"
         transform="translate(450.72895,103.21356)">
        <path
           d="m 0,0 c 0,0 7.008,11.635 -3.493,15.376 -10.501,3.742 -16.018,-12.51 -16.018,-12.51 0,0 -5.823,-13.435 7.061,-21.079 0,0 -3.493,6.986 -1.213,13.674 C -11.172,2.769 -4.3,6.21 0,0"
           style="fill:#ea971e;fill-opacity:1;fill-rule:nonzero;stroke:none"
           id="path1281" />
      </g>
      <g
         style="filter:url(#filter1785)"
         id="g1283"
         transform="translate(394.15974,102.46356)">
        <path
           d="m 0,0 c 0,0 -7.007,11.635 3.494,15.376 10.501,3.742 16.017,-12.51 16.017,-12.51 0,0 5.823,-13.435 -7.06,-21.079 0,0 3.493,6.986 1.213,13.674 C 11.172,2.769 4.3,6.21 0,0"
           style="fill:#ea971e;fill-opacity:1;fill-rule:nonzero;stroke:none"
           id="path1285" />
      </g>
      <g
         style="filter:url(#filter1785)"
         id="g1287"
         transform="translate(433.50473,90.327467)">
        <path
           d="m 0,0 h -22.801 c -1.459,0 -2.642,1.184 -2.642,2.643 0,1.46 1.183,2.642 2.642,2.642 H 0 C 1.46,5.285 2.643,4.103 2.643,2.643 2.643,1.184 1.46,0 0,0"
           style="fill:#c27526;fill-opacity:1;fill-rule:nonzero;stroke:none"
           id="path1289" />
      </g>
    </g>
  </g>
</svg>
